# xmcd
#
# Track frame offsets:
#	150
#	2971
#	23791
#	44971
#	63510
#	80690
#	97550
#	99250
#	117991
#	136971
#	154351
#	170412
#	194639
#	209549
#	224741
#	245211
#	260568
#	278849
#	297666
#	317247
#
# Disc length: 4472 seconds
#
# Revision: 0
# Processed by: cddbd v1.4PL0 Copyright (c) Steve Scherf et al.
# Submitted via: EasyCDDAExtractor 4.6.9.1
#
DISCID=41117614
DTITLE=戴佩妮 - 爱过
DYEAR=2002
DGENRE=Pop
TTITLE0=Just Sing It
TTITLE1=时间快转 Fastly-Turning Time
TTITLE2=不一定 Uncertain
TTITLE3=爱过 Once Fell In Love
TTITLE4=欲望的世界 The World Of Desire
TTITLE5=我还是很爱你 I Am Still Loving U
TTITLE6=Just Like Her
TTITLE7=路 The Way
TTITLE8=街角的祝福 Blessing
TTITLE9=等你回来 Waiting For You
TTITLE10=我祈祷 I Pray
TTITLE11=一九九九 1999
TTITLE12=日期
TTITLE13=雨和太阳
TTITLE14=怎样
TTITLE15=不想
TTITLE16=习惯这样
TTITLE17=四季天
TTITLE18=忽然
TTITLE19=你要的爱
EXTD=
EXTT0=
EXTT1=
EXTT2=
EXTT3=
EXTT4=
EXTT5=
EXTT6=
EXTT7=
EXTT8=
EXTT9=
EXTT10=
EXTT11=
EXTT12=
EXTT13=
EXTT14=
EXTT15=
EXTT16=
EXTT17=
EXTT18=
EXTT19=
PLAYORDER=
